<?xml version="1.0" ?><!-- Uploaded to: SVG Repo, www.svgrepo.com, Generator: SVG Repo Mixer Tools -->
<svg fill="#000000" width="800px" height="800px" viewBox="0 0 32 32" data-name="Layer 1" id="Layer_1" xmlns="http://www.w3.org/2000/svg"><rect height="1" width="10" x="10" y="3"/><rect height="1" width="10" x="10" y="27"/><rect height="1" transform="translate(-9 22) rotate(-90)" width="17" x="-2" y="15"/><rect height="1" transform="translate(8 39) rotate(-90)" width="17" x="15" y="15"/><rect height="1" width="10" x="12" y="29"/><rect height="1" transform="translate(8 43) rotate(-90)" width="17" x="17" y="17"/><path d="M22,30V29h2a1,1,0,0,0,1-1V26h1v2a2,2,0,0,1-2,2Z"/><path d="M20,28V27h2a1,1,0,0,0,1-1V24h1v2a2,2,0,0,1-2,2Z"/><path d="M10,28V27H8a1,1,0,0,1-1-1V24H6v2a2,2,0,0,0,2,2Z"/><path d="M20,3V4h2a1,1,0,0,1,1,1V7h1V5a2,2,0,0,0-2-2Z"/><path d="M10,3V4H8A1,1,0,0,0,7,5V7H6V5A2,2,0,0,1,8,3Z"/><path d="M23,5V6h1a1,1,0,0,1,1,1V9h1V7a2,2,0,0,0-2-2Z"/><path d="M12,30V29H10a1,1,0,0,1-1-1V27H8v1a2,2,0,0,0,2,2Z"/><path d="M11,7V8H10A1,1,0,0,1,9,7V5h1V7Z"/><path d="M10,7V8h1a1,1,0,0,0,1-1V5H11V7Z"/><path d="M11,3V2H10A1,1,0,0,0,9,3V4h1V3Z"/><path d="M10,3V2h1a1,1,0,0,1,1,1V5H11V3Z"/></svg>